<svg width="190" height="36" viewBox="0 0 190 36" fill="none" xmlns="http://www.w3.org/2000/svg">
<path d="M29.032 1.736L19.768 35H9.976L0.376 1.736H8.68L15.016 28.856L20.968 1.736H29.032ZM44.7006 0.919998C49.4366 0.919998 53.1166 2.44 55.7406 5.48C58.3966 8.52 59.7246 12.808 59.7246 18.344C59.7246 21.96 59.1166 25.08 57.9006 27.704C56.7166 30.328 54.9886 32.344 52.7166 33.752C50.4766 35.128 47.8046 35.816 44.7006 35.816C41.5966 35.816 38.9246 35.128 36.6846 33.752C34.4446 32.376 32.7166 30.392 31.5006 27.8C30.3166 25.176 29.7246 22.024 29.7246 18.344C29.7246 14.76 30.3166 11.656 31.5006 9.032C32.7166 6.408 34.4446 4.408 36.6846 3.032C38.9246 1.624 41.5966 0.919998 44.7006 0.919998ZM44.7006 6.68C42.4286 6.68 40.7326 7.608 39.6126 9.464C38.5246 11.288 37.9806 14.248 37.9806 18.344C37.9806 22.44 38.5406 25.416 39.6606 27.272C40.7806 29.128 42.4606 30.056 44.7006 30.056C47.0046 30.056 48.7006 29.144 49.7886 27.32C50.9086 25.464 51.4686 22.472 51.4686 18.344C51.4686 14.216 50.9086 11.24 49.7886 9.416C48.6686 7.592 46.9726 6.68 44.7006 6.68ZM77.8881 0.919998C82.6241 0.919998 86.3041 2.44 88.9281 5.48C91.5841 8.52 92.9121 12.808 92.9121 18.344C92.9121 21.96 92.3041 25.08 91.0881 27.704C89.9041 30.328 88.1761 32.344 85.9041 33.752C83.6641 35.128 80.9921 35.816 77.8881 35.816C74.7841 35.816 72.1121 35.128 69.8721 33.752C67.6321 32.376 65.9041 30.392 64.6881 27.8C63.5041 25.176 62.9121 22.024 62.9121 18.344C62.9121 14.76 63.5041 11.656 64.6881 9.032C65.9041 6.408 67.6321 4.408 69.8721 3.032C72.1121 1.624 74.7841 0.919998 77.8881 0.919998ZM77.8881 6.68C75.6161 6.68 73.9201 7.608 72.8001 9.464C71.7121 11.288 71.1681 14.248 71.1681 18.344C71.1681 22.44 71.7281 25.416 72.8481 27.272C73.9681 29.128 75.6481 30.056 77.8881 30.056C80.1921 30.056 81.8881 29.144 82.9761 27.32C84.0961 25.464 84.6561 22.472 84.6561 18.344C84.6561 14.216 84.0961 11.24 82.9761 9.416C81.8561 7.592 80.1601 6.68 77.8881 6.68ZM118.7 1.736L117.932 7.784H109.724V35H101.852V7.784H93.2601V1.736H118.7ZM132.814 22.28H129.742V35H121.87V1.736H132.766C137.31 1.736 140.718 2.568 142.99 4.232C145.294 5.896 146.446 8.44 146.446 11.864C146.446 14.008 145.934 15.8 144.91 17.24C143.886 18.648 142.27 19.848 140.062 20.84L148.51 35H139.63L132.814 22.28ZM129.742 16.856H133.054C134.814 16.856 136.126 16.456 136.99 15.656C137.886 14.856 138.334 13.592 138.334 11.864C138.334 10.264 137.854 9.096 136.894 8.36C135.966 7.624 134.526 7.256 132.574 7.256H129.742V16.856ZM159.367 1.736V35H151.495V1.736H159.367ZM179.142 0.919998C181.222 0.919998 183.062 1.224 184.662 1.832C186.294 2.44 187.83 3.352 189.27 4.568L185.526 9.032C184.534 8.264 183.558 7.688 182.598 7.304C181.638 6.92 180.614 6.728 179.526 6.728C177.286 6.728 175.51 7.672 174.198 9.56C172.918 11.448 172.278 14.36 172.278 18.296C172.278 22.168 172.918 25.048 174.198 26.936C175.51 28.792 177.318 29.72 179.622 29.72C180.838 29.72 181.942 29.496 182.934 29.048C183.926 28.568 184.998 27.896 186.15 27.032L189.654 31.544C188.406 32.792 186.886 33.816 185.094 34.616C183.334 35.416 181.382 35.816 179.238 35.816C176.166 35.816 173.494 35.144 171.222 33.8C168.95 32.456 167.174 30.472 165.894 27.848C164.646 25.192 164.021 22.008 164.021 18.296C164.021 14.68 164.662 11.56 165.942 8.936C167.254 6.312 169.046 4.328 171.318 2.984C173.622 1.608 176.23 0.919998 179.142 0.919998Z" fill="#141414"/>
</svg>
